<svg width="220" height="52" viewBox="0 0 220 52" fill="none" xmlns="http://www.w3.org/2000/svg">
<path d="M64.8135 29.6187C64.8135 38.2627 69.6609 43.178 77.7626 43.178C85.6609 43.178 89.966 38.4322 89.966 31.0424V26.161H76.2711V30.4661H85.2203V31.0424C85.2203 35.6865 83.0508 38.8051 77.7626 38.8051C72.5084 38.8051 69.5592 35.5848 69.5592 29.7882V22.0255C69.5592 16.2288 72.5084 13.0085 77.7626 13.0085C83.0508 13.0085 85.2203 16.0932 85.2203 20.7712V21.2119H89.966V20.7712C89.966 13.4831 85.6609 8.63562 77.7626 8.63562C69.6609 8.63562 64.8135 13.5848 64.8135 22.1949V29.6187ZM100.034 9.31359H95.5592V42.5339H100.034V9.31359ZM105.932 25.1102L109.763 26.8729C110.847 24.161 113.085 22.2966 116.881 22.2966C120.678 22.2966 122.915 24.1949 122.915 27.3814V28.0593L114.305 28.839C108.339 29.4153 105.458 31.856 105.458 36.0593C105.458 40.2288 108.813 43.178 114.034 43.178C118.813 43.178 121.254 40.9407 122.237 38.8729H122.915V42.5339H127.288V27.5848C127.288 21.9577 123.254 18.3305 116.983 18.3305C111.288 18.3305 107.593 21.4831 105.932 25.1102ZM109.966 35.8899C109.966 33.517 112.102 32.5678 114.78 32.3305L122.915 31.5509V32.161C122.915 36.1949 120.237 39.4831 114.78 39.4831C111.695 39.4831 109.966 38.0593 109.966 35.8899ZM133.152 25.2797C133.152 29.7204 136.61 31.4492 141.83 32.2288L143.797 32.5C146.305 32.8729 149.288 33.1102 149.288 35.5509C149.288 37.8221 146.915 39.3814 143.593 39.3814C139.797 39.3814 136.813 37.2458 135.356 33.7543L131.356 35.8899C133.152 39.2797 136.847 43.178 143.458 43.178C149.424 43.178 153.695 40.0593 153.695 35.4153C153.695 30.5678 149.593 29.2458 144.305 28.4661L142.373 28.1949C139.864 27.8221 137.559 27.517 137.559 25.2458C137.559 23.2458 139.525 22.0255 142.136 22.0255C144.881 22.0255 147.695 23.3136 150.237 26.6356L153.559 24.2627C149.898 20.161 146.78 18.3305 142.034 18.3305C137.288 18.3305 133.152 20.8729 133.152 25.2797ZM158.169 25.2797C158.169 29.7204 161.627 31.4492 166.847 32.2288L168.813 32.5C171.322 32.8729 174.305 33.1102 174.305 35.5509C174.305 37.8221 171.932 39.3814 168.61 39.3814C164.813 39.3814 161.83 37.2458 160.339 33.7543L156.373 35.8899C158.169 39.2797 161.864 43.178 168.474 43.178C174.441 43.178 178.712 40.0593 178.712 35.4153C178.712 30.5678 174.576 29.2458 169.322 28.4661L167.39 28.1949C164.847 27.8221 162.576 27.517 162.576 25.2458C162.576 23.2458 164.542 22.0255 167.152 22.0255C169.898 22.0255 172.678 23.3136 175.254 26.6356L178.576 24.2627C174.915 20.161 171.797 18.3305 167.051 18.3305C162.305 18.3305 158.169 20.8729 158.169 25.2797ZM183.661 9.31359V31.3136C183.661 39.0085 188.203 43.178 196.102 43.178C203.966 43.178 208.508 39.0085 208.508 31.3136V9.31359H203.763V31.3136C203.763 36.1949 201.22 38.8051 196.102 38.8051C190.949 38.8051 188.407 36.1949 188.407 31.3136V9.31359H183.661ZM215.254 9.31359V42.5339H220V9.31359H215.254Z" fill="#5095E4"/>
<path d="M0 25.9456L25.8679 51.8136L51.8136 25.8679L25.9456 0L0 25.9456ZM25.889 37.8029L14.0107 25.9246L37.8029 25.889L25.889 37.8029Z" fill="#2F6ED3"/>
</svg>
